{"title":"Dear.Mr.Gacy.2010.720p.BRRip.x264.Feel-Free","uid":6049250,"size":1807981470,"categoryP":"video","categoryS":"hd___movies","magnet":"?xt=urn:btih:417c353cda17de1e58ee06d6e68a3df1cc06524d&amp;dn=+Dear.Mr.Gacy.2010.720p.BRRip.x264.Feel-Free&amp;tr=udp%3A%2F%2Ftracker.openbittorrent.com%3A80&amp;tr=udp%3A%2F%2Fopen.demonii.com%3A1337&amp;tr=udp%3A%2F%2Ftracker.coppersurfer.tk%3A6969&amp;tr=udp%3A%2F%2Fexodus.desync.com%3A6969","seeders":0,"leechers":2,"uploader":"neon","files":-1,"time":1292664395,"description":"Genre:Drama\nLanguage:English\n &lt;a href=&quot; http://www.imdb.com/title/tt1371117/&quot; rel=&quot;nofollow&quot; target=&quot;_NEW&quot;&gt; http://www.imdb.com/title/tt1371117/&lt;/a&gt;\nSource:BluRay.x264-aAF\n\n\nFormat : Matroska\nFile size : 1.68 GiB\nDuration : 1h 43mn\nOverall bit rate : 2 328 Kbps\n\n\nVideo\nFormat settings, CABAC : Yes\nFormat settings, ReFrames : 4 frames\nFormat settings, GOP : M=1, N=32\nCodec ID : V_MPEG4/ISO/AVC\nDuration : 1h 43mn\nBit rate : 1 898 Kbps\nNominal bit rate : 2 000 Kbps\nWidth : 1 280 pixels\nHeight : 720 pixels\nDisplay aspect ratio : 16:9\nFrame rate mode : Variable\nFrame rate : 23.976 fps\nColor space : YUV\nChroma subsampling : 4:2:0\nBit depth : 8 bits\nScan type : Progressive\nBits/(Pixel*Frame) : 0.086\nStream size : 1.37 GiB (82%)\nWriting library : x264\n\n\nAudio\nID : 2\nFormat : AC-3\nFormat/Info : Audio Coding 3\nMode extension : CM (complete main)\nCodec ID : A_AC3\nDuration : 1h 43mn\nBit rate mode : Constant\nBit rate : 384 Kbps\nChannel(s) : 6 channels\nChannel positions : Front: L C R, Side: L R, LFE\nSampling rate : 48.0 KHz\nBit depth : 16 bits\nVideo delay : -1mn 5s\nStream size : 283 MiB (16%)\nLanguage : English\n\n\nPlot:\nA chronicle of the interaction between college student Jason Moss and the object of his obsession, serial killer John Wayne Gacy.\n\n","torrent":{"xt":"urn:btih:417c353cda17de1e58ee06d6e68a3df1cc06524d","amp;dn":"+Dear.Mr.Gacy.2010.720p.BRRip.x264.Feel-Free","amp;tr":["udp%3A%2F%2Ftracker.openbittorrent.com%3A80","udp%3A%2F%2Fopen.demonii.com%3A1337","udp%3A%2F%2Ftracker.coppersurfer.tk%3A6969","udp%3A%2F%2Fexodus.desync.com%3A6969"],"infoHash":"417c353cda17de1e58ee06d6e68a3df1cc06524d","infoHashBuffer":{"type":"Buffer","data":[65,124,53,60,218,23,222,30,88,238,6,214,230,138,61,241,204,6,82,77]},"announce":[],"urlList":[]}}